<?xml version="1.0" encoding="UTF-8"?>
<svg version="1.1" xmlns="http://www.w3.org/2000/svg" width="512" height="512">
<path d="M0 0 C168.96 0 337.92 0 512 0 C512 168.96 512 337.92 512 512 C343.04 512 174.08 512 0 512 C0 343.04 0 174.08 0 0 Z " fill="#FEFEFE" transform="translate(0,0)"/>
<path d="M0 0 C1.1719693 -0.01921509 2.3439386 -0.03843018 3.55142212 -0.05822754 C5.45448624 -0.07097717 5.45448624 -0.07097717 7.39599609 -0.08398438 C8.70216888 -0.09538452 10.00834167 -0.10678467 11.35409546 -0.11853027 C14.12312369 -0.13953844 16.89203612 -0.15122922 19.66113281 -0.15820312 C23.18863887 -0.16912795 26.71458318 -0.21708348 30.24160194 -0.27414703 C33.62636608 -0.32066302 37.01092931 -0.32431788 40.39599609 -0.33398438 C41.65256012 -0.35867798 42.90912415 -0.38337158 44.20376587 -0.40881348 C52.27370143 -0.36813998 57.17212455 0.99614255 63.29443359 6.32226562 C64.47392578 7.33933594 64.47392578 7.33933594 65.67724609 8.37695312 C66.53962891 9.27800781 66.53962891 9.27800781 67.41943359 10.19726562 C68.07814453 10.88433594 68.73685547 11.57140625 69.41552734 12.27929688 C71.71812701 14.78295514 73.98610626 17.30667603 76.20068359 19.88867188 C77.85183097 21.80782265 79.51940166 23.70709222 81.20068359 25.59960938 C89.06340796 34.49608787 96.29940925 43.7308899 103.29443359 53.32226562 C107.52181645 49.32148924 110.99168842 44.97140572 114.48193359 40.32226562 C115.63676449 38.79873942 116.79171358 37.27530279 117.94677734 35.75195312 C118.51380371 35.00139648 119.08083008 34.25083984 119.66503906 33.47753906 C125.06134915 26.33959698 130.50892405 19.24113832 136.10693359 12.25976562 C137.13753906 10.97392578 137.13753906 10.97392578 138.18896484 9.66210938 C142.53119986 4.83650868 147.42528887 0.72418866 154.06962585 0.03398132 C157.57488347 -0.0917789 161.06815368 -0.11962692 164.57568359 -0.11132812 C166.50595398 -0.1191909 166.50595398 -0.1191909 168.47521973 -0.12721252 C171.19191331 -0.13611986 173.90831254 -0.13374743 176.625 -0.1237793 C180.0952447 -0.11228269 183.56447282 -0.13252185 187.03458405 -0.16169643 C190.36083685 -0.18451855 193.68685447 -0.1775897 197.01318359 -0.17382812 C198.874328 -0.19067909 198.874328 -0.19067909 200.77307129 -0.20787048 C211.55769223 -0.12076048 211.55769223 -0.12076048 216.29443359 4.32226562 C218.13039068 7.99417979 218.16478936 11.41154544 217.29443359 15.32226562 C215.15634322 18.7663545 212.50433288 21.66589107 209.77929688 24.65722656 C206.94894562 27.83101734 204.29541745 31.15341542 201.60693359 34.44726562 C200.39933747 35.91401873 199.19099349 37.38015639 197.98193359 38.84570312 C195.54160342 41.80693004 193.10423841 44.77055667 190.66943359 47.73632812 C185.35991556 54.20005771 180.03831682 60.64792973 174.60693359 67.00976562 C170.40472837 71.93516952 166.38684296 76.98345916 162.41650391 82.09692383 C159.75835416 85.50544906 157.03860421 88.83995173 154.21704102 92.11450195 C152.37996801 94.25231281 150.57882231 96.41948593 148.77392578 98.58447266 C147.73782156 99.80146768 146.68193717 101.00177051 145.61181641 102.18896484 C137.92462539 110.20011326 137.92462539 110.20011326 134.98583984 120.43945312 C135.26139272 123.18089296 135.80052949 125.82306045 136.41943359 128.50585938 C139.73001848 142.94533005 136.53403983 159.08379572 128.88037109 171.64257812 C122.93629826 180.00242388 116.31154275 184.79670553 106.29443359 187.32226562 C97.25246532 188.81403817 88.83634487 185.05630705 81.29443359 180.32226562 C80.62798828 181.19367188 79.96154297 182.06507813 79.27490234 182.96289062 C54.21141578 215.4701133 54.21141578 215.4701133 34.44677734 219.97070312 C24.13126101 221.12113246 12.92113523 221.63948444 3.29443359 217.32226562 C2.53001953 216.98195313 1.76560547 216.64164063 0.97802734 216.29101562 C-7.32962863 212.13015916 -13.79927765 205.75984933 -17.70556641 197.32226562 C-19.89600341 186.70014646 -20.07694611 176.68428831 -14.61181641 167.10742188 C-11.39603168 162.40894952 -7.75884111 158.31086042 -3.70556641 154.32226562 C-3.16416016 153.78214844 -2.62275391 153.24203125 -2.06494141 152.68554688 C9.90466426 141.65295579 35.5971438 124.32226562 52.29443359 124.32226562 C52.65794922 123.50822266 52.65794922 123.50822266 53.02880859 122.67773438 C54.59957704 119.75435976 56.52203292 117.26595017 58.54443359 114.63476562 C62.33067761 109.64964628 65.90586017 104.58452082 69.29443359 99.32226562 C62.86636496 91.72027666 56.37571774 84.20541909 49.56884766 76.9387207 C46.99426503 74.1861277 44.48653275 71.39490333 42.02880859 68.53710938 C37.84630283 63.73554474 33.36871837 59.25004864 28.85693359 54.75976562 C28.04933594 53.94830078 27.24173828 53.13683594 26.40966797 52.30078125 C22.08842117 47.98649859 17.70081757 43.8216394 13.05004883 39.86352539 C11.21652361 38.25386822 9.50210198 36.56418451 7.79443359 34.82226562 C5.3837788 32.36778075 2.90090968 30.06784502 0.29443359 27.82226562 C-7.62723103 20.96816908 -7.62723103 20.96816908 -10.70556641 17.32226562 C-10.70556641 16.66226563 -10.70556641 16.00226563 -10.70556641 15.32226562 C-11.36556641 15.32226562 -12.02556641 15.32226562 -12.70556641 15.32226562 C-13.19527617 8.09904663 -13.19527617 8.09904663 -10.89306641 4.44726562 C-7.19267059 0.85259541 -5.05220197 0.06684802 0 0 Z " fill="#EF8439" transform="translate(167.70556640625,140.677734375)"/>
<path d="M0 0 C3.9076729 3.71756989 7.15153078 7.63576494 10.3125 12 C10.79251465 12.66225586 11.2725293 13.32451172 11.76708984 14.00683594 C18.42329192 23.28598585 24.06896007 32.80371567 29.0625 43.0625 C29.67279053 44.29564941 29.67279053 44.29564941 30.29541016 45.55371094 C30.66327637 46.33133789 31.03114258 47.10896484 31.41015625 47.91015625 C31.74152588 48.60246338 32.07289551 49.29477051 32.41430664 50.00805664 C33.12708973 52.43223224 32.87805294 53.65227458 32 56 C30.25 58.41015625 30.25 58.41015625 28 61.0625 C27.18402344 62.03445313 26.36804688 63.00640625 25.52734375 64.0078125 C24.69332031 64.99523437 23.85929687 65.98265625 23 67 C21.51758066 68.80984065 20.0383427 70.62229241 18.5625 72.4375 C14.56584522 77.32384489 10.52766639 82.17436772 6.4765625 87.015625 C4.07955055 89.90413782 1.7266727 92.82455149 -0.625 95.75 C-10.27963737 107.45309956 -22.26303924 118.09940087 -38 120 C-47.50549902 120.58424043 -57.15772358 120.96543319 -66 117 C-66.76441406 116.6596875 -67.52882812 116.319375 -68.31640625 115.96875 C-76.62406223 111.80789354 -83.09371125 105.43758371 -87 97 C-89.190437 86.37788083 -89.3713797 76.36202268 -83.90625 66.78515625 C-80.69046527 62.08668389 -77.05327471 57.98859479 -73 54 C-72.45859375 53.45988281 -71.9171875 52.91976562 -71.359375 52.36328125 C-59.38976933 41.33069016 -33.69728979 24 -17 24 C-16.63648438 23.18789063 -16.63648438 23.18789063 -16.265625 22.359375 C-14.68968798 19.42151709 -12.77002099 16.90213641 -10.75 14.25 C-9.94399976 13.18750808 -9.13801022 12.12500805 -8.33203125 11.0625 C-7.56246094 10.051875 -6.79289062 9.04125 -6 8 C-4.81095698 6.41782511 -3.62318815 4.8346906 -2.4375 3.25 C-1.625 2.16666667 -0.8125 1.08333333 0 0 Z " fill="#D069E7" transform="translate(237,241)"/>
<path d="M0 0 C1.93027039 -0.00786278 1.93027039 -0.00786278 3.89953613 -0.0158844 C6.61622972 -0.02479173 9.33262895 -0.02241931 12.04931641 -0.01245117 C15.5195611 -0.00095457 18.98878922 -0.02119373 22.45890045 -0.05036831 C25.78515326 -0.07319043 29.11117087 -0.06626158 32.4375 -0.0625 C34.29864441 -0.07935097 34.29864441 -0.07935097 36.1973877 -0.09654236 C46.98200864 -0.00943235 46.98200864 -0.00943235 51.71875 4.43359375 C53.55470708 8.10550792 53.58910577 11.52287357 52.71875 15.43359375 C50.58065963 18.87768262 47.92864928 21.7772192 45.20361328 24.76855469 C42.37326203 27.94234547 39.71973385 31.26474355 37.03125 34.55859375 C35.82365388 36.02534685 34.61530989 37.49148452 33.40625 38.95703125 C30.96591983 41.91825817 28.52855482 44.8818848 26.09375 47.84765625 C20.78423197 54.31138583 15.46263323 60.75925785 10.03125 67.12109375 C5.83005929 72.04530854 1.81455809 77.09336226 -2.15698242 82.20385742 C-5.70030132 86.74426588 -9.3860541 91.14272237 -13.13647461 95.51269531 C-17.16467022 100.23166607 -20.98743813 105.09950134 -24.75390625 110.02929688 C-28.07072868 114.32833309 -28.07072868 114.32833309 -30.28125 115.43359375 C-30.48169922 114.88123047 -30.68214844 114.32886719 -30.88867188 113.75976562 C-38.46981412 93.01047154 -47.84821774 73.74094859 -60.28125 55.43359375 C-58.90781127 52.51018385 -57.32644158 49.97646289 -55.41015625 47.37890625 C-54.84127686 46.60611328 -54.27239746 45.83332031 -53.6862793 45.03710938 C-53.07824463 44.21919922 -52.47020996 43.40128906 -51.84375 42.55859375 C-51.21702393 41.71232422 -50.59029785 40.86605469 -49.94458008 39.99414062 C-44.92295459 33.23992991 -39.8037994 26.57160518 -34.53955078 20.00488281 C-33.27934667 18.43121698 -32.0282932 16.8505582 -30.77734375 15.26953125 C-29.99488281 14.29242188 -29.21242188 13.3153125 -28.40625 12.30859375 C-27.72820312 11.46039063 -27.05015625 10.6121875 -26.3515625 9.73828125 C-18.5159932 1.01566637 -11.24959817 -0.02661649 0 0 Z " fill="#751ACA" transform="translate(332.28125,140.56640625)"/>
<path d="M0 0 C6.28037616 -0.10175694 12.56053824 -0.17161462 18.84155273 -0.21972656 C20.97639918 -0.23979182 23.111191 -0.26705058 25.24584961 -0.30175781 C28.32158925 -0.35049943 31.39659969 -0.37302006 34.47265625 -0.390625 C35.42084732 -0.41127014 36.36903839 -0.43191528 37.34596252 -0.45318604 C44.70597564 -0.45565563 48.77447054 1.21431546 54.40625 6.078125 C55.0971875 6.79484375 55.788125 7.5115625 56.5 8.25 C57.26828125 9.04664063 58.0365625 9.84328125 58.828125 10.6640625 C61.25190241 13.27093101 63.63054351 15.90134922 65.9453125 18.60546875 C67.57006949 20.49895931 69.21153005 22.37204989 70.8671875 24.23828125 C90.28123031 46.21610661 108.51114638 70.37342622 119 98 C119.51693871 99.23156016 120.03663962 100.46196331 120.55859375 101.69140625 C128.31744143 120.42997413 130.21809923 143.1114949 122.75 162.25 C120.40770238 167.53928336 117.41541342 174.29229329 112 177 C112.2165625 176.49855469 112.433125 175.99710938 112.65625 175.48046875 C119.49648008 156.89151016 113.64969469 136.26472661 105.90234375 118.94921875 C94.46359977 94.23955102 77.27236935 70.76069435 57.75 51.75 C56.8425 50.8425 55.935 49.935 55 49 C55 48.34 55 47.68 55 47 C54.34 47 53.68 47 53 47 C53 46.34 53 45.68 53 45 C52.34 45 51.68 45 51 45 C51 44.34 51 43.68 51 43 C49.68 42.34 48.36 41.68 47 41 C47 40.34 47 39.68 47 39 C46.47148437 38.79246094 45.94296875 38.58492187 45.3984375 38.37109375 C42.01248655 36.43547684 39.41064191 33.75450038 36.625 31.0625 C30.29487901 25.06690098 23.68922129 19.616775 16.75537109 14.33935547 C14.92917436 12.94595974 13.11402859 11.53910361 11.30078125 10.12890625 C10.11738129 9.21068769 8.93379444 8.29270993 7.75 7.375 C7.20077881 6.94872314 6.65155762 6.52244629 6.08569336 6.08325195 C3.17333611 3.83967144 3.17333611 3.83967144 0 2 C0 1.34 0 0.68 0 0 Z " fill="#E65C40" transform="translate(178,142)"/>
<path d="M0 0 C3.9076729 3.71756989 7.15153078 7.63576494 10.3125 12 C10.79251465 12.66225586 11.2725293 13.32451172 11.76708984 14.00683594 C18.42329192 23.28598585 24.06896007 32.80371567 29.0625 43.0625 C29.67279053 44.29564941 29.67279053 44.29564941 30.29541016 45.55371094 C30.66327637 46.33133789 31.03114258 47.10896484 31.41015625 47.91015625 C31.74152588 48.60246338 32.07289551 49.29477051 32.41430664 50.00805664 C33.12708973 52.43223224 32.87805294 53.65227458 32 56 C30.25 58.41015625 30.25 58.41015625 28 61.0625 C27.18402344 62.03445313 26.36804688 63.00640625 25.52734375 64.0078125 C24.69332031 64.99523437 23.85929687 65.98265625 23 67 C21.51758066 68.80984065 20.0383427 70.62229241 18.5625 72.4375 C14.56584522 77.32384489 10.52766639 82.17436772 6.4765625 87.015625 C4.07955055 89.90413782 1.7266727 92.82455149 -0.625 95.75 C-10.27963737 107.45309956 -22.26303924 118.09940087 -38 120 C-50.38081011 120.76096687 -60.93948271 120.11239114 -72 114 C-72 113.01 -72 112.02 -72 111 C-70.65808594 110.88785156 -70.65808594 110.88785156 -69.2890625 110.7734375 C-60.80375491 109.85072815 -54.81738341 108.15781022 -48 103 C-47.31550781 102.484375 -46.63101563 101.96875 -45.92578125 101.4375 C-40.1130236 96.68679827 -35.59705038 90.8953963 -31 85 C-30.55769043 84.43845215 -30.11538086 83.8769043 -29.65966797 83.29833984 C-28.28855177 81.55720147 -26.92407044 79.81111082 -25.5625 78.0625 C-25.13727051 77.51899902 -24.71204102 76.97549805 -24.27392578 76.41552734 C-22.66003008 74.32000809 -21.1569235 72.33338366 -20.02734375 69.93359375 C-18.85755863 67.73190692 -17.30998548 66.31881497 -15.52490234 64.60644531 C-12.10111409 60.99957264 -9.26534158 56.86749385 -6.3125 52.875 C-5.63638672 51.96878906 -4.96027344 51.06257813 -4.26367188 50.12890625 C-1.77709183 46.7887241 0.68980066 43.46529901 3 40 C3.66 40 4.32 40 5 40 C5.28875 39.38125 5.5775 38.7625 5.875 38.125 C7 36 7 36 9 34 C9.08303951 31.98509758 9.08303951 31.98509758 8 30 C0.64899937 24.67083656 -7.07594212 23.0316456 -16 23 C-14.43426041 17.93091809 -11.32515704 14.39028397 -8 10.375 C-6.91567896 9.05028703 -5.83230816 7.72479554 -4.75 6.3984375 C-4.27046875 5.81755371 -3.7909375 5.23666992 -3.296875 4.63818359 C-2.11951011 3.15096251 -1.05217937 1.57826906 0 0 Z " fill="#AB2FE7" transform="translate(237,241)"/>
<path d="M0 0 C-0.93601246 1.41764994 -1.8738792 2.83407568 -2.8125 4.25 C-3.33457031 5.03890625 -3.85664063 5.8278125 -4.39453125 6.640625 C-7.5139589 11.22489337 -7.5139589 11.22489337 -9 13 C-9.66 13 -10.32 13 -11 13 C-11.40400024 14.10686157 -11.40400024 14.10686157 -11.81616211 15.23608398 C-12.9582571 17.9025425 -14.21003413 19.90833418 -15.94140625 22.22265625 C-16.52083984 23.00286133 -17.10027344 23.78306641 -17.69726562 24.58691406 C-18.31279297 25.40385742 -18.92832031 26.22080078 -19.5625 27.0625 C-20.19220703 27.90651367 -20.82191406 28.75052734 -21.47070312 29.62011719 C-22.73089757 31.30790063 -23.99338789 32.99397257 -25.25830078 34.67822266 C-26.75177451 36.66910227 -28.23640096 38.66592262 -29.71484375 40.66796875 C-31.78749715 43.4633936 -33.88122109 46.23943328 -36 49 C-36.53882813 49.70640625 -37.07765625 50.4128125 -37.6328125 51.140625 C-42.03778781 56.62954711 -46.54432398 59.79890276 -53.5625 61 C-57.17281263 61.27771636 -58.08921911 60.95379725 -61.5 59.1875 C-64.09530914 56.91660451 -64.82762201 56.11066274 -65.34375 52.78515625 C-65.89926087 43.1053794 -61.90657753 37.62583909 -55.8359375 30.4375 C-46.13357307 20.0536986 -14.68706857 -4.89568952 0 0 Z " fill="#7418C1" transform="translate(216,268)"/>
<path d="M0 0 C3.9076729 3.71756989 7.15153078 7.63576494 10.3125 12 C10.79251465 12.66225586 11.2725293 13.32451172 11.76708984 14.00683594 C18.42329192 23.28598585 24.06896007 32.80371567 29.0625 43.0625 C29.67279053 44.29564941 29.67279053 44.29564941 30.29541016 45.55371094 C30.84720947 46.72015137 30.84720947 46.72015137 31.41015625 47.91015625 C31.74152588 48.60246338 32.07289551 49.29477051 32.41430664 50.00805664 C33.13029727 52.44314107 32.89198067 53.64307226 32 56 C30.56978871 57.96929093 29.06102435 59.88269872 27.5 61.75 C26.6853125 62.73484375 25.870625 63.7196875 25.03125 64.734375 C24.3609375 65.48203125 23.690625 66.2296875 23 67 C22.67 67 22.34 67 22 67 C21.9484375 65.9584375 21.896875 64.916875 21.84375 63.84375 C20.98071102 51.66817356 17.86741122 38.92443826 8.5625 30.25 C6.84844275 29.00817093 6.84844275 29.00817093 5 28 C4.33484375 27.60683594 3.6696875 27.21367187 2.984375 26.80859375 C-3.1166625 23.6593172 -9.21732739 23.22953207 -16 23 C-14.43426041 17.93091809 -11.32515704 14.39028397 -8 10.375 C-6.91567896 9.05028703 -5.83230816 7.72479554 -4.75 6.3984375 C-4.27046875 5.81755371 -3.7909375 5.23666992 -3.296875 4.63818359 C-2.11951011 3.15096251 -1.05217937 1.57826906 0 0 Z " fill="#851DDB" transform="translate(237,241)"/>
<path d="M0 0 C3.17483528 5.18598591 2.48153303 11.13405219 2 17 C0.6875 20.625 0.6875 20.625 -1 23 C-1.433125 23.639375 -1.86625 24.27875 -2.3125 24.9375 C-4 26 -4 26 -7.1875 25.6875 C-8.115625 25.460625 -9.04375 25.23375 -10 25 C-10.33 23.35 -10.66 21.7 -11 20 C-11.33 20 -11.66 20 -12 20 C-12.66 20.66 -13.32 21.32 -14 22 C-15.32392972 23.01241685 -16.65599167 24.01439389 -18 25 C-18.66 24.67 -19.32 24.34 -20 24 C-19.2265625 23.10539062 -18.453125 22.21078125 -17.65625 21.2890625 C-11.62883216 14.29842065 -5.69333777 7.26737821 0 0 Z " fill="#E24331" transform="translate(270,295)"/>
<path d="M0 0 C0.66 0 1.32 0 2 0 C2.34422689 5.73711481 2.36694489 10.06983069 -1 15 C-3.1875 16.375 -3.1875 16.375 -5 17 C-6.36710998 12.05737161 -6.15277518 9.65181801 -3.625 5.125 C-1.31034483 1.31034483 -1.31034483 1.31034483 0 0 Z " fill="#D3272D" transform="translate(270,303)"/>
<path d="M0 0 C0.66 0.33 1.32 0.66 2 1 C1.49855469 1.54140625 0.99710937 2.0828125 0.48046875 2.640625 C-1.41994146 5.66924708 -1.14604457 7.2483869 -0.6875 10.75 C-0.56761719 11.73484375 -0.44773437 12.7196875 -0.32421875 13.734375 C-0.21722656 14.48203125 -0.11023438 15.2296875 0 16 C0.99 16.33 1.98 16.66 3 17 C1.02 16.67 -0.96 16.34 -3 16 C-3.33 14.35 -3.66 12.7 -4 11 C-4.33 11 -4.66 11 -5 11 C-5.66 11.66 -6.32 12.32 -7 13 C-8.32392972 14.01241685 -9.65599167 15.01439389 -11 16 C-11.66 15.67 -12.32 15.34 -13 15 C-11.02132918 12.68707408 -9.04208794 10.37464074 -7.0625 8.0625 C-6.49853516 7.40314453 -5.93457031 6.74378906 -5.35351562 6.06445312 C-4.81533203 5.43603516 -4.27714844 4.80761719 -3.72265625 4.16015625 C-3.22515869 3.57886963 -2.72766113 2.99758301 -2.21508789 2.39868164 C-1.5013317 1.57708043 -0.76957015 0.76957015 0 0 Z " fill="#E94E2F" transform="translate(263,304)"/>
<path d="M0 0 C1 3 1 3 0.0390625 4.9375 C-0.42757813 5.618125 -0.89421875 6.29875 -1.375 7 C-4.40222603 11.4647356 -5.12040498 14.58177612 -5 20 C-5.66 20 -6.32 20 -7 20 C-7.60670868 12.47681236 -6.15741968 7.34951369 -2 1 C-1.34 0.67 -0.68 0.34 0 0 Z " fill="#DE352B" transform="translate(270,300)"/>
<path d="M0 0 C0.33 0.99 0.66 1.98 1 3 C-0.4765625 5.26953125 -0.4765625 5.26953125 -2.625 7.8125 C-3.35976563 8.69292969 -4.09453125 9.57335937 -4.8515625 10.48046875 C-5.91503906 11.72763672 -5.91503906 11.72763672 -7 13 C-8.00106768 14.20744894 -9.00130018 15.41559183 -10 16.625 C-10.66 17.40875 -11.32 18.1925 -12 19 C-12.66 18.67 -13.32 18.34 -14 18 C-13.64695801 17.56131592 -13.29391602 17.12263184 -12.93017578 16.6706543 C-11.32716386 14.67730028 -9.72606421 12.68241868 -8.125 10.6875 C-7.56941406 9.99720703 -7.01382812 9.30691406 -6.44140625 8.59570312 C-5.90644531 7.92861328 -5.37148438 7.26152344 -4.8203125 6.57421875 C-4.32805176 5.96151123 -3.83579102 5.34880371 -3.32861328 4.7175293 C-2.15106276 3.19528235 -1.06754369 1.60131554 0 0 Z " fill="#9B36E3" transform="translate(298,160)"/>
<path d="M0 0 C0.66 0 1.32 0 2 0 C2.33 1.98 2.66 3.96 3 6 C2.01 5.34 1.02 4.68 0 4 C-0.99 5.485 -0.99 5.485 -2 7 C-3.30518475 8.03647024 -4.63461347 9.04422943 -6 10 C-6.66 9.67 -7.32 9.34 -8 9 C-6.71520959 7.49410612 -5.42195918 5.99542625 -4.125 4.5 C-3.04605469 3.24703125 -3.04605469 3.24703125 -1.9453125 1.96875 C-1.30335938 1.3190625 -0.66140625 0.669375 0 0 Z " fill="#F06335" transform="translate(258,310)"/>
<path d="M0 0 C0.99 0.66 1.98 1.32 3 2 C1.35 3.98 -0.3 5.96 -2 8 C-2.33 7.34 -2.66 6.68 -3 6 C-2.06553465 3.96855359 -1.06775224 1.96466413 0 0 Z " fill="#E14E61" transform="translate(293,311)"/>
</svg>
